<svg width="220" height="220" version="1.1" viewBox="0 0 165 165" xmlns="http://www.w3.org/2000/svg"><defs><filter id="d" x="-.03375" y="-.03375" width="1.0675" height="1.0675" color-interpolation-filters="sRGB"><feGaussianBlur stdDeviation="3.79692"/></filter><filter id="c" x="-.03375" y="-.03375" width="1.0675" height="1.0675" color-interpolation-filters="sRGB"><feGaussianBlur stdDeviation="3.79692"/></filter><filter id="b" x="-.013667" y="-.017571" width="1.0273" height="1.0351" color-interpolation-filters="sRGB"><feGaussianBlur stdDeviation="2.05"/></filter><filter id="a" x="-.013667" y="-.017571" width="1.0273" height="1.0351" color-interpolation-filters="sRGB"><feGaussianBlur stdDeviation="2.05"/></filter></defs><g transform="matrix(.46384 0 0 .46384 -6.5565 -6.5556)" stroke-width="1.4062"><path d="m267.94 360.75c14.024 0 25.312-11.288 25.312-25.312v-219.38c0-14.024-11.288-25.312-25.312-25.312h-219.38c-14.024 0-25.312 11.288-25.312 25.312v219.38c0 14.024 11.288 25.312 25.312 25.312zm-42.188-67.5h-135v-135h135z" filter="url(#d)" opacity=".3"/><path d="m335.44 293.25c14.024 0 25.312-11.288 25.312-25.312v-219.38c0-14.024-11.288-25.312-25.312-25.312h-219.38c-14.024 0-25.312 11.288-25.312 25.312v42.188h202.5v135h-135v-67.5h-67.5v109.69c0 14.024 11.288 25.312 25.312 25.312z" filter="url(#c)" opacity=".3"/><path d="m267.94 360.75c14.024 0 25.312-11.288 25.312-25.312v-219.37c0-14.024-11.288-25.312-25.312-25.312h-219.37c-14.024 0-25.312 11.288-25.312 25.312v219.37c0 14.024 11.288 25.312 25.312 25.312zm-42.187-67.5h-135v-135h135z" fill="#fd9733"/><path d="m335.44 293.25c14.024 0 25.312-11.288 25.312-25.312v-219.37c0-14.024-11.288-25.312-25.312-25.312h-219.37c-14.024 0-25.312 11.288-25.312 25.312v42.188h202.5v135h-135v-67.5h-67.5v109.69c0 14.024 11.288 25.312 25.312 25.312z" fill="#367bf0"/></g><g transform="matrix(.34788 0 0 .34788 -6.5565 -6.5556)" fill="#fff" stroke-width="1.875"><path d="m64.75 119.23c-18.699 0-33.75 15.051-33.75 33.75v10c0-18.699 15.051-33.75 33.75-33.75h292.5c18.699 0 33.75 15.051 33.75 33.75v-10c0-18.699-15.051-33.75-33.75-33.75zm56.25 270v10h269.45v-10z" filter="url(#b)" opacity=".2"/><path d="m154.75 29.233c-18.699 0-33.75 15.051-33.75 33.75v10c0-18.699 15.051-33.75 33.75-33.75h292.5c18.699 0 33.75 15.051 33.75 33.75v-10c0-18.699-15.051-33.75-33.75-33.75zm56.25 270v10h180v-10z" filter="url(#a)" opacity=".3"/></g></svg>
